<?xml version="1.0" encoding="UTF-8" standalone="no"?>
<!DOCTYPE svg PUBLIC "-//W3C//DTD SVG 1.1//EN"
 "http://www.w3.org/Graphics/SVG/1.1/DTD/svg11.dtd">
<!-- Generated by graphviz version 12.1.0 (20240811.2233)
 -->
<!-- Title: G Pages: 1 -->
<svg width="930pt" height="1315pt"
 viewBox="0.00 0.00 930.38 1315.23" xmlns="http://www.w3.org/2000/svg" xmlns:xlink="http://www.w3.org/1999/xlink">
<g id="graph0" class="graph" transform="scale(1 1) rotate(0) translate(4 1311.23)">
<title>G</title><style>.edge>path:hover{stroke-width:8}</style>
<polygon fill="white" stroke="none" points="-4,4 -4,-1311.23 926.38,-1311.23 926.38,4 -4,4"/>
<!-- ai_bestseller -->
<g id="node1" class="node">
<title>ai_bestseller</title><style>.edge>path:hover{stroke-width:8}</style>
<ellipse fill="#b65353" stroke="black" cx="42.54" cy="-140.88" rx="42.54" ry="18"/>
<text text-anchor="middle" x="42.54" y="-137.38" font-family="Helvetica,sans-Serif" font-size="10.00" fill="#ffffff">ai_bestseller</text>
</g>
<!-- launch_writer_py -->
<g id="node11" class="node">
<title>launch_writer_py</title><style>.edge>path:hover{stroke-width:8}</style>
<ellipse fill="#445b7e" stroke="black" cx="619.54" cy="-22.63" rx="54.27" ry="22.63"/>
<text text-anchor="middle" x="619.54" y="-25.13" font-family="Helvetica,sans-Serif" font-size="10.00" fill="#ffffff">launch_writer.</text>
<text text-anchor="middle" x="619.54" y="-13.13" font-family="Helvetica,sans-Serif" font-size="10.00" fill="#ffffff">py</text>
</g>
<!-- ai_bestseller&#45;&gt;launch_writer_py -->
<g id="edge1" class="edge">
<title>ai_bestseller&#45;&gt;launch_writer_py</title><style>.edge>path:hover{stroke-width:8}</style>
<path fill="none" stroke="black" d="M69.5,-126.48C77.11,-123.25 85.5,-120.18 93.54,-118.25 150.52,-104.63 585.31,-129.79 619.54,-82.25"/>
<path fill="none" stroke="black" d="M619.54,-81.25C624.57,-74.28 626.22,-65.49 626.2,-56.9"/>
<polygon fill="#b65353" stroke="black" points="629.69,-56.68 625.41,-46.99 622.71,-57.24 629.69,-56.68"/>
</g>
<!-- ai_bestseller_generate_ideas -->
<g id="node2" class="node">
<title>ai_bestseller_generate_ideas</title><style>.edge>path:hover{stroke-width:8}</style>
<ellipse fill="#b34c4c" stroke="black" cx="619.54" cy="-140.88" rx="57.98" ry="22.63"/>
<text text-anchor="middle" x="619.54" y="-143.38" font-family="Helvetica,sans-Serif" font-size="10.00" fill="#ffffff">ai_bestseller.</text>
<text text-anchor="middle" x="619.54" y="-131.38" font-family="Helvetica,sans-Serif" font-size="10.00" fill="#ffffff">generate_ideas</text>
</g>
<!-- ai_bestseller_generate_ideas&#45;&gt;launch_writer_py -->
<g id="edge2" class="edge">
<title>ai_bestseller_generate_ideas&#45;&gt;launch_writer_py</title><style>.edge>path:hover{stroke-width:8}</style>
<path fill="none" stroke="black" d="M613.8,-118.03C612.07,-106.38 612.24,-92.4 619.54,-82.25"/>
</g>
<!-- ai_bestseller_perform_editing -->
<g id="node3" class="node">
<title>ai_bestseller_perform_editing</title><style>.edge>path:hover{stroke-width:8}</style>
<ellipse fill="#b34c4c" stroke="black" cx="161.54" cy="-140.88" rx="58.51" ry="22.63"/>
<text text-anchor="middle" x="161.54" y="-143.38" font-family="Helvetica,sans-Serif" font-size="10.00" fill="#ffffff">ai_bestseller.</text>
<text text-anchor="middle" x="161.54" y="-131.38" font-family="Helvetica,sans-Serif" font-size="10.00" fill="#ffffff">perform_editing</text>
</g>
<!-- ai_bestseller_perform_editing&#45;&gt;launch_writer_py -->
<g id="edge3" class="edge">
<title>ai_bestseller_perform_editing&#45;&gt;launch_writer_py</title><style>.edge>path:hover{stroke-width:8}</style>
<path fill="none" stroke="black" d="M203.98,-124.84C212.37,-122.31 221.17,-119.95 229.54,-118.25 272.19,-109.61 594.12,-117.57 619.54,-82.25"/>
</g>
<!-- ai_bestseller_perform_literary_critique -->
<g id="node4" class="node">
<title>ai_bestseller_perform_literary_critique</title><style>.edge>path:hover{stroke-width:8}</style>
<ellipse fill="#b34c4c" stroke="black" cx="323.54" cy="-140.88" rx="85.03" ry="22.63"/>
<text text-anchor="middle" x="323.54" y="-143.38" font-family="Helvetica,sans-Serif" font-size="10.00" fill="#ffffff">ai_bestseller.</text>
<text text-anchor="middle" x="323.54" y="-131.38" font-family="Helvetica,sans-Serif" font-size="10.00" fill="#ffffff">perform_literary_critique</text>
</g>
<!-- ai_bestseller_perform_literary_critique&#45;&gt;launch_writer_py -->
<g id="edge4" class="edge">
<title>ai_bestseller_perform_literary_critique&#45;&gt;launch_writer_py</title><style>.edge>path:hover{stroke-width:8}</style>
<path fill="none" stroke="black" d="M385.9,-125.08C396.44,-122.71 407.29,-120.35 417.54,-118.25 462.22,-109.14 592.9,-119.26 619.54,-82.25"/>
</g>
<!-- ai_bestseller_perform_writing -->
<g id="node5" class="node">
<title>ai_bestseller_perform_writing</title><style>.edge>path:hover{stroke-width:8}</style>
<ellipse fill="#b34c4c" stroke="black" cx="485.54" cy="-140.88" rx="58.51" ry="22.63"/>
<text text-anchor="middle" x="485.54" y="-143.38" font-family="Helvetica,sans-Serif" font-size="10.00" fill="#ffffff">ai_bestseller.</text>
<text text-anchor="middle" x="485.54" y="-131.38" font-family="Helvetica,sans-Serif" font-size="10.00" fill="#ffffff">perform_writing</text>
</g>
<!-- ai_bestseller_perform_writing&#45;&gt;launch_writer_py -->
<g id="edge5" class="edge">
<title>ai_bestseller_perform_writing&#45;&gt;launch_writer_py</title><style>.edge>path:hover{stroke-width:8}</style>
<path fill="none" stroke="black" d="M526.85,-124.58C564.03,-110.42 613.7,-90.37 619.54,-82.25"/>
</g>
<!-- ai_bestseller_utils -->
<g id="node6" class="node">
<title>ai_bestseller_utils</title><style>.edge>path:hover{stroke-width:8}</style>
<ellipse fill="#d92626" stroke="black" cx="485.54" cy="-222.14" rx="52.15" ry="22.63"/>
<text text-anchor="middle" x="485.54" y="-224.64" font-family="Helvetica,sans-Serif" font-size="10.00" fill="#ffffff">ai_bestseller.</text>
<text text-anchor="middle" x="485.54" y="-212.64" font-family="Helvetica,sans-Serif" font-size="10.00" fill="#ffffff">utils</text>
</g>
<!-- ai_bestseller_utils&#45;&gt;ai_bestseller_generate_ideas -->
<g id="edge6" class="edge">
<title>ai_bestseller_utils&#45;&gt;ai_bestseller_generate_ideas</title><style>.edge>path:hover{stroke-width:8}</style>
<path fill="none" stroke="black" d="M515.62,-203.35C534.32,-192.29 558.6,-177.93 578.99,-165.87"/>
<polygon fill="#d92626" stroke="black" points="580.52,-169.03 587.34,-160.93 576.95,-163.01 580.52,-169.03"/>
</g>
<!-- ai_bestseller_utils&#45;&gt;ai_bestseller_perform_editing -->
<g id="edge7" class="edge">
<title>ai_bestseller_utils&#45;&gt;ai_bestseller_perform_editing</title><style>.edge>path:hover{stroke-width:8}</style>
<path fill="none" stroke="black" d="M438.53,-211.83C386.95,-201.32 301.88,-183.11 229.54,-163.51 225.11,-162.31 220.52,-161 215.93,-159.64"/>
<polygon fill="#d92626" stroke="black" points="217.31,-156.4 206.72,-156.84 215.28,-163.1 217.31,-156.4"/>
</g>
<!-- ai_bestseller_utils&#45;&gt;ai_bestseller_perform_literary_critique -->
<g id="edge8" class="edge">
<title>ai_bestseller_utils&#45;&gt;ai_bestseller_perform_literary_critique</title><style>.edge>path:hover{stroke-width:8}</style>
<path fill="none" stroke="black" d="M451.58,-204.52C428.91,-193.43 398.72,-178.66 373.35,-166.25"/>
<polygon fill="#d92626" stroke="black" points="375.05,-163.18 364.53,-161.93 371.97,-169.47 375.05,-163.18"/>
</g>
<!-- ai_bestseller_utils&#45;&gt;ai_bestseller_perform_writing -->
<g id="edge9" class="edge">
<title>ai_bestseller_utils&#45;&gt;ai_bestseller_perform_writing</title><style>.edge>path:hover{stroke-width:8}</style>
<path fill="none" stroke="black" d="M485.54,-199.06C485.54,-191.67 485.54,-183.27 485.54,-175.22"/>
<polygon fill="#d92626" stroke="black" points="489.04,-175.35 485.54,-165.35 482.04,-175.35 489.04,-175.35"/>
</g>
<!-- dotenv -->
<g id="node7" class="node">
<title>dotenv</title><style>.edge>path:hover{stroke-width:8}</style>
<ellipse fill="#98ac49" stroke="black" cx="760.54" cy="-140.88" rx="27.21" ry="18"/>
<text text-anchor="middle" x="760.54" y="-137.38" font-family="Helvetica,sans-Serif" font-size="10.00" fill="#000000">dotenv</text>
</g>
<!-- dotenv&#45;&gt;launch_writer_py -->
<g id="edge10" class="edge">
<title>dotenv&#45;&gt;launch_writer_py</title><style>.edge>path:hover{stroke-width:8}</style>
<path fill="none" stroke="black" d="M740.38,-128.53C733.83,-125.04 726.47,-121.31 719.54,-118.25 676.33,-99.19 591.94,-120.59 619.54,-82.25"/>
</g>
<!-- dotenv_ipython -->
<g id="node8" class="node">
<title>dotenv_ipython</title><style>.edge>path:hover{stroke-width:8}</style>
<ellipse fill="#9eb34c" stroke="black" cx="828.54" cy="-222.14" rx="47.51" ry="18"/>
<text text-anchor="middle" x="828.54" y="-218.64" font-family="Helvetica,sans-Serif" font-size="10.00" fill="#000000">dotenv.ipython</text>
</g>
<!-- dotenv_ipython&#45;&gt;dotenv -->
<g id="edge11" class="edge">
<title>dotenv_ipython&#45;&gt;dotenv</title><style>.edge>path:hover{stroke-width:8}</style>
<path fill="none" stroke="black" d="M814.46,-204.72C804.75,-193.41 791.71,-178.2 780.88,-165.58"/>
<polygon fill="#9eb34c" stroke="black" points="783.62,-163.4 774.45,-158.09 778.31,-167.96 783.62,-163.4"/>
</g>
<!-- dotenv_main -->
<g id="node9" class="node">
<title>dotenv_main</title><style>.edge>path:hover{stroke-width:8}</style>
<ellipse fill="#a9c247" stroke="black" cx="805.54" cy="-298.76" rx="41.19" ry="18"/>
<text text-anchor="middle" x="805.54" y="-295.26" font-family="Helvetica,sans-Serif" font-size="10.00" fill="#000000">dotenv.main</text>
</g>
<!-- dotenv_main&#45;&gt;dotenv -->
<g id="edge12" class="edge">
<title>dotenv_main&#45;&gt;dotenv</title><style>.edge>path:hover{stroke-width:8}</style>
<path fill="none" stroke="black" d="M792.37,-281.63C784.96,-271.63 776.26,-258.17 771.54,-244.76 763.07,-220.69 760.61,-191.64 760.11,-170.55"/>
<polygon fill="#a9c247" stroke="black" points="763.61,-170.64 760.02,-160.67 756.61,-170.71 763.61,-170.64"/>
</g>
<!-- dotenv_main&#45;&gt;dotenv_ipython -->
<g id="edge13" class="edge">
<title>dotenv_main&#45;&gt;dotenv_ipython</title><style>.edge>path:hover{stroke-width:8}</style>
<path fill="none" stroke="black" d="M810.88,-280.46C813.55,-271.79 816.85,-261.08 819.87,-251.27"/>
<polygon fill="#a9c247" stroke="black" points="823.19,-252.39 822.79,-241.8 816.5,-250.32 823.19,-252.39"/>
</g>
<!-- httpx -->
<g id="node10" class="node">
<title>httpx</title><style>.edge>path:hover{stroke-width:8}</style>
<ellipse fill="#10f96d" stroke="black" cx="473.54" cy="-1289.23" rx="27" ry="18"/>
<text text-anchor="middle" x="473.54" y="-1285.73" font-family="Helvetica,sans-Serif" font-size="10.00" fill="#000000">httpx</text>
</g>
<!-- openai -->
<g id="node12" class="node">
<title>openai</title><style>.edge>path:hover{stroke-width:8}</style>
<ellipse fill="#760791" stroke="black" cx="705.54" cy="-370.76" rx="27" ry="18"/>
<text text-anchor="middle" x="705.54" y="-367.26" font-family="Helvetica,sans-Serif" font-size="10.00" fill="#ffffff">openai</text>
</g>
<!-- httpx&#45;&gt;openai -->
<g id="edge14" class="edge">
<title>httpx&#45;&gt;openai</title><style>.edge>path:hover{stroke-width:8}</style>
<path fill="none" stroke="black" d="M581.54,-441.76C606.77,-415.08 644.47,-395.8 671.67,-384.31"/>
<polygon fill="#10f96d" stroke="black" points="672.91,-387.58 680.86,-380.58 670.28,-381.1 672.91,-387.58"/>
<path fill="none" stroke="black" d="M62.54,-1012.1C69.56,-1003.05 67.7,-997.74 76.54,-990.47 125.71,-950.08 182.18,-994.92 209.54,-937.47"/>
<path fill="none" stroke="black" d="M24.54,-1093.35C15.19,-1055.42 38.59,-1044.96 62.54,-1014.1"/>
<path fill="none" stroke="black" d="M209.54,-935.47C243.92,-863.3 225.62,-833.28 267.54,-765.22 284.85,-737.12 312.66,-744.49 319.54,-712.22"/>
<path fill="none" stroke="black" d="M319.54,-710.22C340.31,-594.3 386.63,-572.81 476.54,-496.76 516.46,-463.01 545.63,-481.75 581.54,-443.76"/>
<path fill="none" stroke="black" d="M473.54,-1234.23C473.13,-1232.76 49.89,-1117.72 48.54,-1116.98 35.95,-1110.08 27.98,-1109.29 24.54,-1095.35"/>
<path fill="none" stroke="black" d="M474.61,-1270.98C474.98,-1260.59 475.01,-1247.11 473.54,-1235.23"/>
</g>
<!-- openai__base_client -->
<g id="node13" class="node">
<title>openai__base_client</title><style>.edge>path:hover{stroke-width:8}</style>
<ellipse fill="#821b9c" stroke="black" cx="469.54" cy="-1094.35" rx="50.03" ry="22.63"/>
<text text-anchor="middle" x="469.54" y="-1096.85" font-family="Helvetica,sans-Serif" font-size="10.00" fill="#ffffff">openai.</text>
<text text-anchor="middle" x="469.54" y="-1084.85" font-family="Helvetica,sans-Serif" font-size="10.00" fill="#ffffff">_base_client</text>
</g>
<!-- httpx&#45;&gt;openai__base_client -->
<g id="edge15" class="edge">
<title>httpx&#45;&gt;openai__base_client</title><style>.edge>path:hover{stroke-width:8}</style>
<path fill="none" stroke="black" d="M473.54,-1174.61C474.35,-1159.45 473.72,-1142.67 472.74,-1128.46"/>
<polygon fill="#10f96d" stroke="black" points="476.25,-1128.43 471.98,-1118.73 469.27,-1128.97 476.25,-1128.43"/>
</g>
<!-- openai__client -->
<g id="node14" class="node">
<title>openai__client</title><style>.edge>path:hover{stroke-width:8}</style>
<ellipse fill="#7e3091" stroke="black" cx="605.54" cy="-711.22" rx="45.7" ry="18"/>
<text text-anchor="middle" x="605.54" y="-707.72" font-family="Helvetica,sans-Serif" font-size="10.00" fill="#ffffff">openai._client</text>
</g>
<!-- httpx&#45;&gt;openai__client -->
<g id="edge16" class="edge">
<title>httpx&#45;&gt;openai__client</title><style>.edge>path:hover{stroke-width:8}</style>
<path fill="none" stroke="black" d="M473.54,-1174.61C475.42,-1139.25 507.57,-1145.5 528.54,-1116.98 559.51,-1074.86 557.51,-1058.22 585.54,-1014.1"/>
</g>
<!-- openai__constants -->
<g id="node15" class="node">
<title>openai__constants</title><style>.edge>path:hover{stroke-width:8}</style>
<ellipse fill="#b526d9" stroke="black" cx="400.54" cy="-1175.61" rx="45.25" ry="22.63"/>
<text text-anchor="middle" x="400.54" y="-1178.11" font-family="Helvetica,sans-Serif" font-size="10.00" fill="#ffffff">openai.</text>
<text text-anchor="middle" x="400.54" y="-1166.11" font-family="Helvetica,sans-Serif" font-size="10.00" fill="#ffffff">_constants</text>
</g>
<!-- httpx&#45;&gt;openai__constants -->
<g id="edge17" class="edge">
<title>httpx&#45;&gt;openai__constants</title><style>.edge>path:hover{stroke-width:8}</style>
<path fill="none" stroke="black" d="M473.54,-1234.23C469.11,-1218.61 456.89,-1206.37 443.69,-1197.26"/>
<polygon fill="#10f96d" stroke="black" points="445.61,-1194.34 435.28,-1191.99 441.89,-1200.26 445.61,-1194.34"/>
</g>
<!-- openai__exceptions -->
<g id="node16" class="node">
<title>openai__exceptions</title><style>.edge>path:hover{stroke-width:8}</style>
<ellipse fill="#b50bdf" stroke="black" cx="547.54" cy="-787.84" rx="48.44" ry="22.63"/>
<text text-anchor="middle" x="547.54" y="-790.34" font-family="Helvetica,sans-Serif" font-size="10.00" fill="#ffffff">openai.</text>
<text text-anchor="middle" x="547.54" y="-778.34" font-family="Helvetica,sans-Serif" font-size="10.00" fill="#ffffff">_exceptions</text>
</g>
<!-- httpx&#45;&gt;openai__exceptions -->
<g id="edge18" class="edge">
<title>httpx&#45;&gt;openai__exceptions</title><style>.edge>path:hover{stroke-width:8}</style>
<path fill="none" stroke="black" d="M473.54,-1234.23C459.39,-1184.37 667.87,-1217.63 699.54,-1176.61"/>
<path fill="none" stroke="black" d="M699.54,-1174.61C747.78,-1112.13 640.51,-1091.18 623.54,-1014.1"/>
</g>
<!-- openai__response -->
<g id="node19" class="node">
<title>openai__response</title><style>.edge>path:hover{stroke-width:8}</style>
<ellipse fill="#84269b" stroke="black" cx="209.54" cy="-1013.1" rx="43.13" ry="22.63"/>
<text text-anchor="middle" x="209.54" y="-1015.6" font-family="Helvetica,sans-Serif" font-size="10.00" fill="#ffffff">openai.</text>
<text text-anchor="middle" x="209.54" y="-1003.6" font-family="Helvetica,sans-Serif" font-size="10.00" fill="#ffffff">_response</text>
</g>
<!-- httpx&#45;&gt;openai__response -->
<g id="edge19" class="edge">
<title>httpx&#45;&gt;openai__response</title><style>.edge>path:hover{stroke-width:8}</style>
<path fill="none" stroke="black" d="M473.54,-1174.61C474.22,-1161.83 463.75,-1161.87 454.54,-1152.98 436.37,-1135.43 428.72,-1134.53 410.54,-1116.98 401.34,-1108.09 402.71,-1101.59 391.54,-1095.35"/>
<path fill="none" stroke="black" d="M391.54,-1093.35C346.77,-1068.34 292.55,-1045.63 255,-1030.99"/>
<polygon fill="#10f96d" stroke="black" points="256.39,-1027.78 245.8,-1027.44 253.87,-1034.31 256.39,-1027.78"/>
<path fill="none" stroke="black" d="M473.54,-1234.23C466.55,-1209.6 472.18,-1202.18 473.54,-1176.61"/>
</g>
<!-- openai__types -->
<g id="node20" class="node">
<title>openai__types</title><style>.edge>path:hover{stroke-width:8}</style>
<ellipse fill="#b50bdf" stroke="black" cx="283.54" cy="-936.47" rx="46.15" ry="18"/>
<text text-anchor="middle" x="283.54" y="-932.97" font-family="Helvetica,sans-Serif" font-size="10.00" fill="#ffffff">openai._types</text>
</g>
<!-- httpx&#45;&gt;openai__types -->
<g id="edge20" class="edge">
<title>httpx&#45;&gt;openai__types</title><style>.edge>path:hover{stroke-width:8}</style>
<path fill="none" stroke="black" d="M24.54,-1093.35C16.64,-1059.77 53.89,-1061.74 76.54,-1035.72 93.79,-1015.92 92.69,-1005.04 114.54,-990.47 124.88,-983.58 189.57,-964.25 235.83,-950.95"/>
<polygon fill="#10f96d" stroke="black" points="236.75,-954.32 245.4,-948.21 234.82,-947.59 236.75,-954.32"/>
</g>
<!-- openai_lib_azure -->
<g id="node26" class="node">
<title>openai_lib_azure</title><style>.edge>path:hover{stroke-width:8}</style>
<ellipse fill="#783a88" stroke="black" cx="519.54" cy="-527.88" rx="33.59" ry="31.11"/>
<text text-anchor="middle" x="519.54" y="-536.38" font-family="Helvetica,sans-Serif" font-size="10.00" fill="#ffffff">openai.</text>
<text text-anchor="middle" x="519.54" y="-524.38" font-family="Helvetica,sans-Serif" font-size="10.00" fill="#ffffff">lib.</text>
<text text-anchor="middle" x="519.54" y="-512.38" font-family="Helvetica,sans-Serif" font-size="10.00" fill="#ffffff">azure</text>
</g>
<!-- httpx&#45;&gt;openai_lib_azure -->
<g id="edge21" class="edge">
<title>httpx&#45;&gt;openai_lib_azure</title><style>.edge>path:hover{stroke-width:8}</style>
<path fill="none" stroke="black" d="M699.54,-1174.61C747.57,-1119.22 737.54,-1087.41 737.54,-1014.1 737.54,-1014.1 737.54,-1014.1 737.54,-786.84 737.54,-713.87 743.44,-685.4 699.54,-627.1"/>
</g>
<!-- openai&#45;&gt;ai_bestseller_utils -->
<g id="edge22" class="edge">
<title>openai&#45;&gt;ai_bestseller_utils</title><style>.edge>path:hover{stroke-width:8}</style>
<path fill="none" stroke="black" d="M709.78,-352.6C712.49,-337.75 714.09,-316.14 705.54,-299.76"/>
<path fill="none" stroke="black" d="M705.54,-297.76C690.27,-268.5 604.57,-246.15 544.76,-233.83"/>
<polygon fill="#760791" stroke="black" points="545.52,-230.42 535.03,-231.88 544.14,-237.28 545.52,-230.42"/>
</g>
<!-- openai&#45;&gt;launch_writer_py -->
<g id="edge23" class="edge">
<title>openai&#45;&gt;launch_writer_py</title><style>.edge>path:hover{stroke-width:8}</style>
<path fill="none" stroke="black" d="M705.54,-297.76C668.41,-226.65 731.29,-184.85 686.54,-118.25 667.69,-90.2 599.79,-109.69 619.54,-82.25"/>
</g>
<!-- openai__base_client&#45;&gt;openai -->
<g id="edge24" class="edge">
<title>openai__base_client&#45;&gt;openai</title><style>.edge>path:hover{stroke-width:8}</style>
<path fill="none" stroke="black" d="M433.54,-786.84C412.28,-730.14 306.91,-771.44 319.54,-712.22"/>
<path fill="none" stroke="black" d="M470.47,-1071.48C471.89,-1020.26 471.22,-889.28 433.54,-788.84"/>
</g>
<!-- openai__base_client&#45;&gt;openai__client -->
<g id="edge25" class="edge">
<title>openai__base_client&#45;&gt;openai__client</title><style>.edge>path:hover{stroke-width:8}</style>
<path fill="none" stroke="black" d="M661.54,-863.47C672.8,-818.05 645.5,-767.48 625.18,-737.83"/>
<polygon fill="#821b9c" stroke="black" points="628.15,-735.97 619.5,-729.85 622.45,-740.03 628.15,-735.97"/>
<path fill="none" stroke="black" d="M509.97,-1080.57C538.98,-1068.73 574.76,-1047.78 585.54,-1014.1"/>
<path fill="none" stroke="black" d="M585.54,-1012.1C607.93,-942.19 648.93,-937.78 661.54,-865.47"/>
</g>
<!-- openai__base_client&#45;&gt;openai__response -->
<g id="edge26" class="edge">
<title>openai__base_client&#45;&gt;openai__response</title><style>.edge>path:hover{stroke-width:8}</style>
<path fill="none" stroke="black" d="M419.47,-1076.22C414.77,-1074.67 410.07,-1073.16 405.54,-1071.72 355.57,-1055.94 297.99,-1039.18 258.23,-1027.83"/>
<polygon fill="#821b9c" stroke="black" points="418.33,-1079.53 428.93,-1079.36 420.54,-1072.89 418.33,-1079.53"/>
<polygon fill="#821b9c" stroke="black" points="259.29,-1024.49 248.71,-1025.12 257.37,-1031.22 259.29,-1024.49"/>
</g>
<!-- openai__base_client&#45;&gt;openai_lib_azure -->
<g id="edge27" class="edge">
<title>openai__base_client&#45;&gt;openai_lib_azure</title><style>.edge>path:hover{stroke-width:8}</style>
<path fill="none" stroke="black" d="M433.54,-786.84C421.9,-755.79 416.51,-740.68 433.54,-712.22"/>
</g>
<!-- openai__client&#45;&gt;openai -->
<g id="edge28" class="edge">
<title>openai__client&#45;&gt;openai</title><style>.edge>path:hover{stroke-width:8}</style>
<path fill="none" stroke="black" d="M569.54,-625.1C556.99,-583.87 596.4,-569.33 581.54,-528.88"/>
</g>
<!-- openai__client&#45;&gt;openai_lib_azure -->
<g id="edge29" class="edge">
<title>openai__client&#45;&gt;openai_lib_azure</title><style>.edge>path:hover{stroke-width:8}</style>
<path fill="none" stroke="black" d="M596.78,-693.14C588.65,-676.63 576.74,-650.72 569.54,-627.1"/>
<path fill="none" stroke="black" d="M569.54,-625.1C563.17,-604.18 552.28,-582.42 542.29,-564.9"/>
<polygon fill="#7e3091" stroke="black" points="545.4,-563.28 537.32,-556.42 539.36,-566.82 545.4,-563.28"/>
</g>
<!-- openai__constants&#45;&gt;openai -->
<g id="edge30" class="edge">
<title>openai__constants&#45;&gt;openai</title><style>.edge>path:hover{stroke-width:8}</style>
<path fill="none" stroke="black" d="M62.54,-1093.35C52.16,-1059.69 40.95,-1041.92 62.54,-1014.1"/>
<path fill="none" stroke="black" d="M357.04,-1168.54C267.73,-1155.52 71.32,-1123.79 62.54,-1095.35"/>
</g>
<!-- openai__constants&#45;&gt;openai__base_client -->
<g id="edge31" class="edge">
<title>openai__constants&#45;&gt;openai__base_client</title><style>.edge>path:hover{stroke-width:8}</style>
<path fill="none" stroke="black" d="M417.96,-1154.61C425.92,-1145.46 435.52,-1134.44 444.26,-1124.4"/>
<polygon fill="#b526d9" stroke="black" points="446.74,-1126.88 450.66,-1117.04 441.46,-1122.28 446.74,-1126.88"/>
</g>
<!-- openai__models -->
<g id="node17" class="node">
<title>openai__models</title><style>.edge>path:hover{stroke-width:8}</style>
<ellipse fill="#b50bdf" stroke="black" cx="360.54" cy="-864.47" rx="50.66" ry="18"/>
<text text-anchor="middle" x="360.54" y="-860.97" font-family="Helvetica,sans-Serif" font-size="10.00" fill="#ffffff">openai._models</text>
</g>
<!-- openai__constants&#45;&gt;openai__models -->
<g id="edge32" class="edge">
<title>openai__constants&#45;&gt;openai__models</title><style>.edge>path:hover{stroke-width:8}</style>
<path fill="none" stroke="black" d="M62.54,-1093.35C61.98,-1091.49 155.85,-991.42 157.54,-990.47 229.1,-950.37 279.23,-1011.12 338.54,-954.47 354.65,-939.09 359.72,-913.92 361.01,-894.27"/>
<polygon fill="#b526d9" stroke="black" points="364.51,-894.51 361.34,-884.4 357.51,-894.27 364.51,-894.51"/>
</g>
<!-- openai__constants&#45;&gt;openai__response -->
<g id="edge33" class="edge">
<title>openai__constants&#45;&gt;openai__response</title><style>.edge>path:hover{stroke-width:8}</style>
<path fill="none" stroke="black" d="M62.54,-1093.35C59.03,-1081.87 121.66,-1052.04 166.28,-1032.43"/>
<polygon fill="#b526d9" stroke="black" points="167.46,-1035.73 175.23,-1028.53 164.66,-1029.32 167.46,-1035.73"/>
</g>
<!-- openai__exceptions&#45;&gt;openai -->
<g id="edge34" class="edge">
<title>openai__exceptions&#45;&gt;openai</title><style>.edge>path:hover{stroke-width:8}</style>
<path fill="none" stroke="black" d="M581.54,-526.88C568.81,-492.2 556.17,-470.6 581.54,-443.76"/>
<path fill="none" stroke="black" d="M531.54,-625.1C536.14,-577.13 598.16,-574.12 581.54,-528.88"/>
</g>
<!-- openai__exceptions&#45;&gt;openai__base_client -->
<g id="edge35" class="edge">
<title>openai__exceptions&#45;&gt;openai__base_client</title><style>.edge>path:hover{stroke-width:8}</style>
<path fill="none" stroke="black" d="M547.54,-865.47C525.08,-942.11 492.72,-1031.24 477.73,-1071.56"/>
</g>
<!-- openai__exceptions&#45;&gt;openai__client -->
<g id="edge36" class="edge">
<title>openai__exceptions&#45;&gt;openai__client</title><style>.edge>path:hover{stroke-width:8}</style>
<path fill="none" stroke="black" d="M563.7,-766.05C570.47,-757.35 578.4,-747.14 585.53,-737.96"/>
<polygon fill="#b50bdf" stroke="black" points="588.29,-740.12 591.66,-730.08 582.76,-735.82 588.29,-740.12"/>
</g>
<!-- openai__exceptions&#45;&gt;openai__response -->
<g id="edge37" class="edge">
<title>openai__exceptions&#45;&gt;openai__response</title><style>.edge>path:hover{stroke-width:8}</style>
<path fill="none" stroke="black" d="M547.54,-865.47C532.17,-927.56 334.52,-982.13 248.78,-1003.03"/>
<path fill="none" stroke="black" d="M550.28,-810.73C551.25,-822.61 551.66,-837.77 549.68,-852.17"/>
<polygon fill="#b50bdf" stroke="black" points="546.24,-851.51 547.83,-861.98 553.12,-852.81 546.24,-851.51"/>
</g>
<!-- openai_lib__old_api -->
<g id="node25" class="node">
<title>openai_lib__old_api</title><style>.edge>path:hover{stroke-width:8}</style>
<ellipse fill="#9849ac" stroke="black" cx="634.54" cy="-626.1" rx="36.77" ry="31.11"/>
<text text-anchor="middle" x="634.54" y="-634.6" font-family="Helvetica,sans-Serif" font-size="10.00" fill="#ffffff">openai.</text>
<text text-anchor="middle" x="634.54" y="-622.6" font-family="Helvetica,sans-Serif" font-size="10.00" fill="#ffffff">lib.</text>
<text text-anchor="middle" x="634.54" y="-610.6" font-family="Helvetica,sans-Serif" font-size="10.00" fill="#ffffff">_old_api</text>
</g>
<!-- openai__exceptions&#45;&gt;openai_lib__old_api -->
<g id="edge38" class="edge">
<title>openai__exceptions&#45;&gt;openai_lib__old_api</title><style>.edge>path:hover{stroke-width:8}</style>
<path fill="none" stroke="black" d="M531.54,-710.22C536.79,-679.52 565.34,-658.04 591.06,-644.61"/>
<polygon fill="#b50bdf" stroke="black" points="592.29,-647.9 599.73,-640.35 589.21,-641.62 592.29,-647.9"/>
</g>
<!-- openai__exceptions&#45;&gt;openai_lib_azure -->
<g id="edge39" class="edge">
<title>openai__exceptions&#45;&gt;openai_lib_azure</title><style>.edge>path:hover{stroke-width:8}</style>
<path fill="none" stroke="black" d="M531.54,-710.22C537.76,-673.8 528.02,-663.87 531.54,-627.1"/>
<path fill="none" stroke="black" d="M538.52,-765.38C533.36,-750.52 528.47,-730.24 531.54,-712.22"/>
<path fill="none" stroke="black" d="M531.54,-625.1C533.28,-606.99 531.41,-587.03 528.67,-570"/>
<polygon fill="#b50bdf" stroke="black" points="532.13,-569.46 526.94,-560.23 525.24,-570.68 532.13,-569.46"/>
</g>
<!-- openai__models&#45;&gt;openai -->
<g id="edge40" class="edge">
<title>openai__models&#45;&gt;openai</title><style>.edge>path:hover{stroke-width:8}</style>
<path fill="none" stroke="black" d="M350.28,-846.35C334.83,-818.44 308.49,-761.32 319.54,-712.22"/>
</g>
<!-- openai__models&#45;&gt;openai__base_client -->
<g id="edge41" class="edge">
<title>openai__models&#45;&gt;openai__base_client</title><style>.edge>path:hover{stroke-width:8}</style>
<path fill="none" stroke="black" d="M395.54,-937.47C388.48,-969.88 374.56,-986.41 395.54,-1012.1"/>
</g>
<!-- openai__models&#45;&gt;openai__exceptions -->
<g id="edge42" class="edge">
<title>openai__models&#45;&gt;openai__exceptions</title><style>.edge>path:hover{stroke-width:8}</style>
<path fill="none" stroke="black" d="M393.12,-850.47C422.96,-838.56 467.46,-820.8 501.03,-807.4"/>
<polygon fill="#b50bdf" stroke="black" points="502.12,-810.74 510.11,-803.78 499.53,-804.24 502.12,-810.74"/>
</g>
<!-- openai__models&#45;&gt;openai__response -->
<g id="edge43" class="edge">
<title>openai__models&#45;&gt;openai__response</title><style>.edge>path:hover{stroke-width:8}</style>
<path fill="none" stroke="black" d="M376.26,-881.84C385.36,-892.94 395.23,-908.43 396.31,-924.4"/>
<polygon fill="#b50bdf" stroke="black" points="392.85,-923.74 395.65,-933.96 399.83,-924.23 392.85,-923.74"/>
<path fill="none" stroke="black" d="M395.54,-937.47C382.84,-995.77 303.68,-1009.45 252.81,-1012.13"/>
</g>
<!-- openai__models&#45;&gt;openai_lib_azure -->
<g id="edge45" class="edge">
<title>openai__models&#45;&gt;openai_lib_azure</title><style>.edge>path:hover{stroke-width:8}</style>
<path fill="none" stroke="black" d="M370.06,-846.73C385.29,-819.36 415.28,-762.97 433.54,-712.22"/>
</g>
<!-- openai__module_client -->
<g id="node18" class="node">
<title>openai__module_client</title><style>.edge>path:hover{stroke-width:8}</style>
<ellipse fill="#9849ac" stroke="black" cx="822.54" cy="-1013.1" rx="57.45" ry="22.63"/>
<text text-anchor="middle" x="822.54" y="-1015.6" font-family="Helvetica,sans-Serif" font-size="10.00" fill="#ffffff">openai.</text>
<text text-anchor="middle" x="822.54" y="-1003.6" font-family="Helvetica,sans-Serif" font-size="10.00" fill="#ffffff">_module_client</text>
</g>
<!-- openai__module_client&#45;&gt;openai -->
<g id="edge46" class="edge">
<title>openai__module_client&#45;&gt;openai</title><style>.edge>path:hover{stroke-width:8}</style>
<path fill="none" stroke="black" d="M862.1,-996.3C885.78,-983.97 910.73,-964.38 907.54,-937.47"/>
<path fill="none" stroke="black" d="M756.54,-625.1C740.82,-607.87 734.45,-605.34 713.54,-594.99 666.31,-571.61 642.24,-591.23 600.54,-558.99 588.03,-549.31 587,-543.73 581.54,-528.88"/>
<path fill="none" stroke="black" d="M907.54,-935.47C898.74,-861.1 828.44,-877.25 794.54,-810.47 775.71,-773.36 784.59,-657.84 756.54,-627.1"/>
</g>
<!-- openai__response&#45;&gt;openai -->
<g id="edge47" class="edge">
<title>openai__response&#45;&gt;openai</title><style>.edge>path:hover{stroke-width:8}</style>
<path fill="none" stroke="black" d="M204.79,-990.43C202.49,-974.93 201.69,-953.96 209.54,-937.47"/>
</g>
<!-- openai__response&#45;&gt;openai__types -->
<g id="edge49" class="edge">
<title>openai__response&#45;&gt;openai__types</title><style>.edge>path:hover{stroke-width:8}</style>
<path fill="none" stroke="black" d="M236.94,-984.47C244.32,-977.02 252.26,-969.02 259.45,-961.77"/>
<polygon fill="#84269b" stroke="black" points="234.61,-981.85 230.05,-991.42 239.58,-986.78 234.61,-981.85"/>
<polygon fill="#84269b" stroke="black" points="261.85,-964.31 266.41,-954.75 256.88,-959.39 261.85,-964.31"/>
</g>
<!-- openai__types&#45;&gt;openai -->
<g id="edge50" class="edge">
<title>openai__types&#45;&gt;openai</title><style>.edge>path:hover{stroke-width:8}</style>
<path fill="none" stroke="black" d="M281.33,-918.1C279.93,-903.88 278.84,-883.26 281.54,-865.47"/>
<path fill="none" stroke="black" d="M281.54,-863.47C286.52,-830.68 267.24,-818.77 281.54,-788.84"/>
<path fill="none" stroke="black" d="M281.54,-786.84C297.6,-753.26 311.78,-748.62 319.54,-712.22"/>
</g>
<!-- openai__types&#45;&gt;openai__base_client -->
<g id="edge51" class="edge">
<title>openai__types&#45;&gt;openai__base_client</title><style>.edge>path:hover{stroke-width:8}</style>
<path fill="none" stroke="black" d="M312.86,-950.79C335.17,-962.11 365.75,-980.22 388.04,-1003.61"/>
<polygon fill="#b50bdf" stroke="black" points="385.29,-1005.79 394.54,-1010.96 390.54,-1001.15 385.29,-1005.79"/>
<path fill="none" stroke="black" d="M395.54,-1014.1C412.69,-1035.09 433.96,-1057.54 449.29,-1073.17"/>
</g>
<!-- openai__types&#45;&gt;openai__client -->
<g id="edge52" class="edge">
<title>openai__types&#45;&gt;openai__client</title><style>.edge>path:hover{stroke-width:8}</style>
<path fill="none" stroke="black" d="M281.54,-863.47C306.03,-752.03 462.37,-722.64 548.61,-714.93"/>
<polygon fill="#b50bdf" stroke="black" points="548.85,-718.42 558.53,-714.12 548.28,-711.45 548.85,-718.42"/>
</g>
<!-- openai__types&#45;&gt;openai__models -->
<g id="edge53" class="edge">
<title>openai__types&#45;&gt;openai__models</title><style>.edge>path:hover{stroke-width:8}</style>
<path fill="none" stroke="black" d="M309.36,-912C317.38,-904.71 326.22,-896.68 334.26,-889.36"/>
<polygon fill="#b50bdf" stroke="black" points="307.18,-909.25 302.14,-918.57 311.89,-914.43 307.18,-909.25"/>
<polygon fill="#b50bdf" stroke="black" points="336.44,-892.11 341.49,-882.8 331.73,-886.93 336.44,-892.11"/>
</g>
<!-- openai__types&#45;&gt;openai_lib_azure -->
<g id="edge55" class="edge">
<title>openai__types&#45;&gt;openai_lib_azure</title><style>.edge>path:hover{stroke-width:8}</style>
<path fill="none" stroke="black" d="M433.54,-710.22C451.7,-658.61 479.94,-602.1 499.06,-566.11"/>
<polygon fill="#b50bdf" stroke="black" points="502.08,-567.87 503.72,-557.41 495.91,-564.57 502.08,-567.87"/>
<path fill="none" stroke="black" d="M281.54,-786.84C314.01,-718.95 394.9,-776.8 433.54,-712.22"/>
</g>
<!-- openai__utils -->
<g id="node21" class="node">
<title>openai__utils</title><style>.edge>path:hover{stroke-width:8}</style>
<ellipse fill="#cb10f9" stroke="black" cx="547.54" cy="-1175.61" rx="42.54" ry="18"/>
<text text-anchor="middle" x="547.54" y="-1172.11" font-family="Helvetica,sans-Serif" font-size="10.00" fill="#ffffff">openai._utils</text>
</g>
<!-- openai__utils&#45;&gt;openai -->
<g id="edge56" class="edge">
<title>openai__utils&#45;&gt;openai</title><style>.edge>path:hover{stroke-width:8}</style>
<path fill="none" stroke="black" d="M907.54,-1093.35C936.64,-1030.48 913,-1006.54 907.54,-937.47"/>
</g>
<!-- openai__utils&#45;&gt;openai__base_client -->
<g id="edge57" class="edge">
<title>openai__utils&#45;&gt;openai__base_client</title><style>.edge>path:hover{stroke-width:8}</style>
<path fill="none" stroke="black" d="M531.76,-1158.57C521.95,-1148.6 509.05,-1135.49 497.54,-1123.8"/>
<polygon fill="#cb10f9" stroke="black" points="500.04,-1121.35 490.53,-1116.68 495.05,-1126.26 500.04,-1121.35"/>
</g>
<!-- openai__utils&#45;&gt;openai__client -->
<g id="edge58" class="edge">
<title>openai__utils&#45;&gt;openai__client</title><style>.edge>path:hover{stroke-width:8}</style>
<path fill="none" stroke="black" d="M623.54,-1093.35C647.11,-1049.26 659.13,-922.59 661.54,-865.47"/>
</g>
<!-- openai__utils&#45;&gt;openai__exceptions -->
<g id="edge59" class="edge">
<title>openai__utils&#45;&gt;openai__exceptions</title><style>.edge>path:hover{stroke-width:8}</style>
<path fill="none" stroke="black" d="M567.2,-1159.5C584.69,-1144.97 609.62,-1121.41 623.54,-1095.35"/>
<path fill="none" stroke="black" d="M623.54,-1012.1C615.34,-941.01 582.91,-862.92 563.16,-820.53"/>
<polygon fill="#cb10f9" stroke="black" points="566.41,-819.21 558.96,-811.67 560.08,-822.2 566.41,-819.21"/>
<path fill="none" stroke="black" d="M623.54,-1093.35C640.15,-1062.29 631.12,-1048.5 623.54,-1014.1"/>
</g>
<!-- openai__utils&#45;&gt;openai__models -->
<g id="edge60" class="edge">
<title>openai__utils&#45;&gt;openai__models</title><style>.edge>path:hover{stroke-width:8}</style>
<path fill="none" stroke="black" d="M546.83,-1157.12C545.41,-1136.02 541.18,-1099.9 528.54,-1071.72 494.47,-995.72 425.02,-924.43 386.95,-888.94"/>
<polygon fill="#cb10f9" stroke="black" points="389.73,-886.74 380,-882.54 384.99,-891.89 389.73,-886.74"/>
</g>
<!-- openai__utils&#45;&gt;openai__module_client -->
<g id="edge61" class="edge">
<title>openai__utils&#45;&gt;openai__module_client</title><style>.edge>path:hover{stroke-width:8}</style>
<path fill="none" stroke="black" d="M586.23,-1167.78C677.8,-1151.39 900.72,-1110.11 907.54,-1095.35"/>
<path fill="none" stroke="black" d="M907.54,-1093.35C918.57,-1069.53 896.44,-1049.46 872.01,-1035.47"/>
<polygon fill="#cb10f9" stroke="black" points="873.66,-1032.39 863.2,-1030.76 870.36,-1038.56 873.66,-1032.39"/>
</g>
<!-- openai__utils&#45;&gt;openai__response -->
<g id="edge62" class="edge">
<title>openai__utils&#45;&gt;openai__response</title><style>.edge>path:hover{stroke-width:8}</style>
<path fill="none" stroke="black" d="M516.03,-1163.24C481.32,-1150.38 428.08,-1129.61 410.54,-1116.98 400.16,-1109.5 402.71,-1101.59 391.54,-1095.35"/>
</g>
<!-- openai__utils&#45;&gt;openai_lib__old_api -->
<g id="edge63" class="edge">
<title>openai__utils&#45;&gt;openai_lib__old_api</title><style>.edge>path:hover{stroke-width:8}</style>
<path fill="none" stroke="black" d="M574.72,-1161.55C618.44,-1138.43 699.54,-1085.87 699.54,-1014.1 699.54,-1014.1 699.54,-1014.1 699.54,-863.47 699.54,-796.25 711.74,-778.32 699.54,-712.22"/>
<path fill="none" stroke="black" d="M699.54,-710.22C695.22,-689.84 681.92,-671.17 668.46,-656.71"/>
<polygon fill="#cb10f9" stroke="black" points="671.16,-654.46 661.65,-649.78 666.17,-659.37 671.16,-654.46"/>
</g>
<!-- openai__utils&#45;&gt;openai_lib_azure -->
<g id="edge64" class="edge">
<title>openai__utils&#45;&gt;openai_lib_azure</title><style>.edge>path:hover{stroke-width:8}</style>
<path fill="none" stroke="black" d="M699.54,-625.1C690.03,-612.46 693.06,-604.67 680.54,-594.99 638.85,-562.75 615.36,-581.17 567.54,-558.99 563.75,-557.23 559.9,-555.23 556.1,-553.1"/>
<polygon fill="#cb10f9" stroke="black" points="557.98,-550.15 547.59,-548.08 554.42,-556.18 557.98,-550.15"/>
<path fill="none" stroke="black" d="M699.54,-710.22C691.88,-674.08 721.77,-656.61 699.54,-627.1"/>
</g>
<!-- openai__utils__logs -->
<g id="node22" class="node">
<title>openai__utils__logs</title><style>.edge>path:hover{stroke-width:8}</style>
<ellipse fill="#a253b6" stroke="black" cx="643.54" cy="-527.88" rx="33.59" ry="31.11"/>
<text text-anchor="middle" x="643.54" y="-536.38" font-family="Helvetica,sans-Serif" font-size="10.00" fill="#ffffff">openai.</text>
<text text-anchor="middle" x="643.54" y="-524.38" font-family="Helvetica,sans-Serif" font-size="10.00" fill="#ffffff">_utils.</text>
<text text-anchor="middle" x="643.54" y="-512.38" font-family="Helvetica,sans-Serif" font-size="10.00" fill="#ffffff">_logs</text>
</g>
<!-- openai__utils__logs&#45;&gt;openai -->
<g id="edge65" class="edge">
<title>openai__utils__logs&#45;&gt;openai</title><style>.edge>path:hover{stroke-width:8}</style>
<path fill="none" stroke="black" d="M616.04,-509.74C591.29,-492.27 561.63,-464.82 581.54,-443.76"/>
</g>
<!-- openai__version -->
<g id="node23" class="node">
<title>openai__version</title><style>.edge>path:hover{stroke-width:8}</style>
<ellipse fill="#b13bce" stroke="black" cx="840.54" cy="-787.84" rx="37.3" ry="22.63"/>
<text text-anchor="middle" x="840.54" y="-790.34" font-family="Helvetica,sans-Serif" font-size="10.00" fill="#ffffff">openai.</text>
<text text-anchor="middle" x="840.54" y="-778.34" font-family="Helvetica,sans-Serif" font-size="10.00" fill="#ffffff">_version</text>
</g>
<!-- openai__version&#45;&gt;openai -->
<g id="edge66" class="edge">
<title>openai__version&#45;&gt;openai</title><style>.edge>path:hover{stroke-width:8}</style>
<path fill="none" stroke="black" d="M831.96,-765.54C826.22,-750.75 818.78,-730.49 813.54,-712.22"/>
<path fill="none" stroke="black" d="M813.54,-710.22C805.56,-682.35 791.73,-681.26 775.54,-657.22 766.71,-644.09 767.21,-638.79 756.54,-627.1"/>
</g>
<!-- openai__version&#45;&gt;openai__client -->
<g id="edge67" class="edge">
<title>openai__version&#45;&gt;openai__client</title><style>.edge>path:hover{stroke-width:8}</style>
<path fill="none" stroke="black" d="M807.87,-776.47C767.09,-763.52 697.13,-741.3 651.1,-726.68"/>
<polygon fill="#b13bce" stroke="black" points="652.27,-723.38 641.68,-723.69 650.15,-730.05 652.27,-723.38"/>
</g>
<!-- openai_version -->
<g id="node29" class="node">
<title>openai_version</title><style>.edge>path:hover{stroke-width:8}</style>
<ellipse fill="#9e4cb3" stroke="black" cx="832.54" cy="-626.1" rx="47.51" ry="18"/>
<text text-anchor="middle" x="832.54" y="-622.6" font-family="Helvetica,sans-Serif" font-size="10.00" fill="#ffffff">openai.version</text>
</g>
<!-- openai__version&#45;&gt;openai_version -->
<g id="edge68" class="edge">
<title>openai__version&#45;&gt;openai_version</title><style>.edge>path:hover{stroke-width:8}</style>
<path fill="none" stroke="black" d="M813.54,-710.22C808.27,-691.83 813.16,-670.84 819.3,-654.55"/>
<polygon fill="#b13bce" stroke="black" points="822.45,-656.09 823.05,-645.51 815.98,-653.4 822.45,-656.09"/>
</g>
<!-- openai_lib -->
<g id="node24" class="node">
<title>openai_lib</title><style>.edge>path:hover{stroke-width:8}</style>
<ellipse fill="#a253b6" stroke="black" cx="674.54" cy="-442.76" rx="34.43" ry="18"/>
<text text-anchor="middle" x="674.54" y="-439.26" font-family="Helvetica,sans-Serif" font-size="10.00" fill="#ffffff">openai.lib</text>
</g>
<!-- openai_lib&#45;&gt;openai -->
<g id="edge69" class="edge">
<title>openai_lib&#45;&gt;openai</title><style>.edge>path:hover{stroke-width:8}</style>
<path fill="none" stroke="black" d="M682.05,-424.82C685.48,-417.08 689.62,-407.72 693.47,-399.03"/>
<polygon fill="#a253b6" stroke="black" points="696.65,-400.5 697.5,-389.94 690.25,-397.66 696.65,-400.5"/>
</g>
<!-- openai_lib__old_api&#45;&gt;openai -->
<g id="edge70" class="edge">
<title>openai_lib__old_api&#45;&gt;openai</title><style>.edge>path:hover{stroke-width:8}</style>
<path fill="none" stroke="black" d="M616.93,-598.36C605.31,-579.62 590.62,-553.58 581.54,-528.88"/>
</g>
<!-- openai_lib_azure&#45;&gt;openai -->
<g id="edge71" class="edge">
<title>openai_lib_azure&#45;&gt;openai</title><style>.edge>path:hover{stroke-width:8}</style>
<path fill="none" stroke="black" d="M536.55,-500.94C548.28,-483.9 564.72,-461.55 581.54,-443.76"/>
</g>
<!-- openai_lib_streaming -->
<g id="node27" class="node">
<title>openai_lib_streaming</title><style>.edge>path:hover{stroke-width:8}</style>
<ellipse fill="#a253b6" stroke="black" cx="736.54" cy="-527.88" rx="41.54" ry="31.11"/>
<text text-anchor="middle" x="736.54" y="-536.38" font-family="Helvetica,sans-Serif" font-size="10.00" fill="#ffffff">openai.</text>
<text text-anchor="middle" x="736.54" y="-524.38" font-family="Helvetica,sans-Serif" font-size="10.00" fill="#ffffff">lib.</text>
<text text-anchor="middle" x="736.54" y="-512.38" font-family="Helvetica,sans-Serif" font-size="10.00" fill="#ffffff">streaming</text>
</g>
<!-- openai_lib_streaming&#45;&gt;openai -->
<g id="edge72" class="edge">
<title>openai_lib_streaming&#45;&gt;openai</title><style>.edge>path:hover{stroke-width:8}</style>
<path fill="none" stroke="black" d="M731.28,-496.88C727.62,-476.5 722.53,-448.96 717.54,-424.76 715.88,-416.69 713.96,-407.96 712.14,-399.96"/>
<polygon fill="#a253b6" stroke="black" points="715.59,-399.35 709.94,-390.39 708.77,-400.92 715.59,-399.35"/>
</g>
<!-- openai_types -->
<g id="node28" class="node">
<title>openai_types</title><style>.edge>path:hover{stroke-width:8}</style>
<ellipse fill="#a253b6" stroke="black" cx="807.54" cy="-442.76" rx="43" ry="18"/>
<text text-anchor="middle" x="807.54" y="-439.26" font-family="Helvetica,sans-Serif" font-size="10.00" fill="#ffffff">openai.types</text>
</g>
<!-- openai_types&#45;&gt;openai -->
<g id="edge73" class="edge">
<title>openai_types&#45;&gt;openai</title><style>.edge>path:hover{stroke-width:8}</style>
<path fill="none" stroke="black" d="M785.91,-426.92C770.47,-416.32 749.56,-401.97 732.95,-390.57"/>
<polygon fill="#a253b6" stroke="black" points="735.21,-387.88 724.98,-385.11 731.25,-393.65 735.21,-387.88"/>
</g>
<!-- openai_version&#45;&gt;openai -->
<g id="edge74" class="edge">
<title>openai_version&#45;&gt;openai</title><style>.edge>path:hover{stroke-width:8}</style>
<path fill="none" stroke="black" d="M806.6,-610.75C795.71,-605.2 782.77,-599.18 770.54,-594.99 686.37,-566.12 612.22,-612.41 581.54,-528.88"/>
</g>
</g>
</svg>
